<svg width="90" height="47" viewBox="0 0 90 47" fill="none" xmlns="http://www.w3.org/2000/svg">
<g clip-path="url(#clip0_7_960)">
<path d="M-4.78451e-05 42.9464C0.528359 40.5693 1.05677 38.1922 1.58341 35.8132C1.71023 35.2385 1.81591 34.6601 1.94801 34.0872C2.60852 31.2452 5.13431 29.5422 8.00884 29.9928C10.4659 30.3777 12.923 30.7627 15.3819 31.1494C15.6126 31.1867 15.8469 31.2204 16.0723 31.2807C16.805 31.4758 17.2084 32.0861 17.0569 32.8117C16.9002 33.5621 16.3806 33.8867 15.6514 33.869C15.2216 33.8583 14.7918 33.7767 14.2863 33.7164C13.8882 36.2993 13.5007 38.8166 13.0992 41.4244C14.9803 41.6958 16.7663 41.9601 18.5541 42.2067C23.4542 42.8844 28.356 43.5514 33.2561 44.2308C36.3878 44.6654 38.7163 42.6857 38.748 39.4801C38.785 35.8576 38.7568 32.2351 38.7568 28.6109C38.7568 28.3465 38.6828 28.0503 38.7744 27.8214C38.9717 27.3354 39.1514 26.6701 39.5336 26.4821C39.9193 26.2923 40.5587 26.5388 41.0554 26.6967C41.3936 26.8032 41.6772 27.0835 41.8286 27.1828C42.549 25.9676 43.1039 24.7205 43.9423 23.7147C44.5728 22.9589 45.5046 22.3611 46.417 21.9513C49.3531 20.6315 52.3316 19.4021 55.3206 18.21C55.7962 18.0202 56.5219 18.0042 56.9481 18.2419C57.8658 18.7546 57.6174 20.0514 56.5412 20.5215C54.4752 21.4227 52.3915 22.2777 50.3131 23.1523C49.3144 23.5727 48.3034 23.963 47.3223 24.4207C45.1576 25.4319 44.0691 27.7735 44.874 30.0159C46.0964 33.4166 47.4509 36.7694 48.7525 40.14C48.7701 40.1861 48.8371 40.2145 48.9445 40.3068C50.4575 39.732 52.0093 39.143 53.6561 38.5186C53.5575 38.1922 53.4765 37.8924 53.3743 37.5996C52.4602 34.9937 51.539 32.3894 50.6284 29.7817C50.1915 28.531 50.4557 27.9704 51.6781 27.5536C53.9485 26.7766 56.2207 26.0066 58.4963 25.2438C59.4845 24.9121 60.2119 25.1782 60.4691 25.9357C60.7491 26.7588 60.3458 27.3957 59.2978 27.7576C57.3638 28.4228 55.4281 29.0792 53.4201 29.7639C54.262 32.1624 55.0705 34.5165 55.9318 36.8528C56.0199 37.0905 56.395 37.2768 56.6769 37.3779C59.2661 38.3163 62.2251 37.4701 63.9336 35.2331C65.2177 33.5532 66.4559 31.8324 67.6219 30.0673C69.6087 27.0551 68.8866 23.2215 65.9416 21.0554C62.8698 18.7954 59.7575 16.5903 56.6628 14.3604C56.543 14.2753 56.4197 14.1972 56.3035 14.1067C55.5337 13.5089 55.3735 12.7833 55.8614 12.1287C56.3158 11.5203 57.0767 11.4298 57.8129 11.9372C58.6337 12.5031 59.4369 13.0956 60.2454 13.6792C62.4118 15.2403 64.5413 16.8546 66.7501 18.3501C69.6845 20.3352 71.3084 23.0122 71.3771 26.6985C71.6995 26.7127 72.0077 26.7393 72.3159 26.7411C74.7766 26.7446 77.2389 26.7233 79.6995 26.7464C85.7093 26.8014 90.2254 31.4439 89.9876 37.3424C89.8907 39.7533 88.9766 41.8537 87.3808 43.6543C87.2276 43.8263 87.0779 44.0002 86.782 44.3355C87.4812 44.3355 88.0184 44.3231 88.5556 44.339C89.4363 44.3656 90.007 44.8978 89.9964 45.6606C89.9876 46.3951 89.4486 46.9149 88.619 46.9787C88.3866 46.9965 88.1505 46.984 87.9163 46.984C59.2925 46.984 30.6687 46.9823 2.04489 46.9947C1.20472 46.9947 0.479041 46.8918 -0.00357056 46.1219C-4.78451e-05 45.0664 -4.78451e-05 44.0073 -4.78451e-05 42.9464ZM78.5459 44.4703C78.5459 39.3204 78.5459 34.3976 78.5459 29.3985C76.0817 29.3985 73.6863 29.3914 71.2908 29.4127C71.1112 29.4145 70.8699 29.5883 70.7659 29.7515C69.9487 31.0359 69.2424 32.4001 68.3335 33.6135C67.5726 34.6318 67.2397 35.6483 67.2714 36.9255C67.356 40.2943 69.4167 43.248 72.6893 43.9807C74.5687 44.4029 76.559 44.3213 78.5459 44.4703ZM81.29 44.1102C84.6701 43.8068 87.4724 40.3138 87.3614 36.5867C87.2593 33.1239 84.2949 29.7267 81.29 29.654C81.29 34.4703 81.29 39.2885 81.29 44.1102ZM10.7953 39.033C11.0894 37.0976 11.3765 35.2065 11.6707 33.2764C10.3197 33.0565 9.11145 32.856 7.90316 32.6626C5.94981 32.3504 4.84368 33.115 4.42976 35.0735C3.86437 37.7433 3.29193 40.4132 2.77233 43.0919C2.70363 43.4449 2.93789 43.8565 3.03125 44.2415C3.37999 44.0623 3.84675 43.9718 4.05812 43.6897C5.03743 42.3734 5.9639 41.0146 6.87452 39.6468C7.35185 38.9301 7.93486 38.6161 8.80321 38.7971C9.42673 38.9266 10.0714 38.9514 10.7953 39.033ZM47.5407 44.3106C45.8533 39.9484 44.2135 35.6731 42.5349 31.412C42.3606 30.9685 41.9678 30.6137 41.6754 30.2163C41.582 30.2553 41.4887 30.2944 41.3953 30.3334C41.3953 30.6456 41.3953 30.9561 41.3953 31.2683C41.3953 33.6827 41.3531 36.0989 41.4077 38.5133C41.4552 40.5391 41.1488 42.4391 39.9528 44.1244C39.9317 44.1528 39.9757 44.229 39.9968 44.3089C42.5015 44.3106 45.0114 44.3106 47.5407 44.3106ZM49.9203 42.785C50.5667 43.821 51.3752 44.3177 52.5729 44.3284C55.266 44.3532 57.9609 44.3372 60.654 44.3372C61.2687 44.3372 61.7795 44.1457 61.8834 43.4644C61.9909 42.746 61.5664 42.4001 60.92 42.2244C59.2555 41.7703 57.5998 41.2878 55.9353 40.8336C55.6958 40.768 55.3999 40.7219 55.1797 40.8017C53.4236 41.4439 51.6799 42.1162 49.9203 42.785ZM67.821 44.2876C66.0367 42.5686 65.1067 40.5959 64.691 38.3589C63.8244 38.8751 63.0547 39.3328 62.2744 39.7958C64.1996 41.0962 64.3616 41.4102 64.573 44.2876C65.5717 44.2876 66.5757 44.2876 67.821 44.2876ZM13.5853 44.3053C13.5888 44.2769 13.5923 44.2485 13.5959 44.2202C12.8825 44.1031 12.1639 44.0073 11.4558 43.8636C10.5751 43.6844 10.2352 43.1966 10.2986 42.2936C10.3127 42.0985 10.3004 41.9016 10.3004 41.5468C9.72792 41.6035 9.004 41.4563 8.72042 41.7455C8.02293 42.455 7.52799 43.3669 6.87452 44.3035C9.24002 44.3053 11.4118 44.3053 13.5853 44.3053Z" fill="#FFB701"/>
<path d="M37.4429 0C38.1862 0.141919 38.9348 0.26255 39.6728 0.429305C41.6948 0.885219 43.5619 1.7048 45.2528 2.91111C47.6165 4.5964 49.9714 6.29588 52.3299 7.98826C52.425 8.05745 52.5219 8.12308 52.6117 8.19937C53.2458 8.74043 53.3726 9.46599 52.9411 10.0727C52.5131 10.6723 51.7557 10.8107 51.074 10.3352C49.5117 9.24424 47.974 8.11599 46.4241 7.00547C45.4465 6.30475 44.4848 5.58096 43.4861 4.91217C36.3738 0.152563 26.5472 3.40783 23.7924 11.4351C23.0297 13.6597 23.1019 15.8754 23.8699 18.0947C25.6172 23.147 27.338 28.2082 29.0712 33.2676C29.6718 35.022 29.1046 35.7618 27.3081 35.5312C25.5379 35.3041 23.7713 35.0487 22.0046 34.7914C21.0729 34.6566 20.5251 34.0428 20.6237 33.2853C20.7276 32.4923 21.3371 32.0577 22.3093 32.1659C23.5229 32.3007 24.7294 32.4923 26.0681 32.6768C25.7052 31.6018 25.3847 30.6385 25.0553 29.6788C23.9122 26.3437 22.8694 22.9696 21.5995 19.6859C18.8729 12.6432 22.3287 6.5123 26.7321 3.20027C29.0042 1.49015 31.56 0.466558 34.3905 0.152563C34.5895 0.129501 34.7833 0.0549936 34.9788 0.00354797C35.8031 0 36.6239 0 37.4429 0Z" fill="#FFB701"/>
</g>
<defs>
<clipPath id="clip0_7_960">
<rect width="90" height="47" fill="white"/>
</clipPath>
</defs>
</svg>
