<svg width="30" height="66" viewBox="0 0 30 66" fill="none" xmlns="http://www.w3.org/2000/svg">
<g clip-path="url(#clip0_1_4)">
<path d="M22.6057 27.9901C22.6057 23.9535 22.5939 19.9168 22.6146 15.8772C22.6175 15.1225 22.3485 14.6494 21.6922 14.2811C19.8266 13.233 17.9906 12.131 16.1486 11.0439C15.649 10.7475 15.2114 10.9032 14.762 11.1667C13.0738 12.1639 11.3797 13.1521 9.6886 14.1463C9.61173 14.1912 9.53486 14.2391 9.45503 14.2841C8.40842 14.88 8.37885 14.9488 8.52077 16.1407C8.56216 16.5 8.59173 16.8624 8.59173 17.2217C8.6006 24.753 8.6006 32.2813 8.60651 39.8126C8.60651 39.9953 8.60947 40.175 8.60355 40.3577C8.58877 40.8787 8.45277 40.9835 7.95016 40.9596C7.41502 40.9326 6.87989 40.9266 6.34476 40.9506C5.87467 40.9685 5.77414 40.9116 5.7771 40.4385C5.78893 39.0191 5.82736 37.5967 5.83032 36.1772C5.83623 30.4008 5.83032 24.6243 5.83328 18.8478C5.83328 17.1229 5.86284 15.401 5.8658 13.6762C5.8658 13.2899 5.98702 13.0353 6.33293 12.8347C9.18008 11.1817 12.0213 9.51672 14.8596 7.84277C15.3415 7.55829 15.7643 7.59123 16.2403 7.86972C19.117 9.56164 22.0026 11.2416 24.8911 12.9155C25.1572 13.0683 25.2696 13.2569 25.2725 13.5654C25.2962 17.1169 25.3435 20.6684 25.3523 24.223C25.3642 29.2119 25.3523 34.2038 25.3435 39.1928C25.3435 39.63 25.2962 40.0672 25.2784 40.5044C25.2636 40.8547 25.0774 40.9685 24.7492 40.9596C24.1993 40.9446 23.6494 40.9476 23.0995 40.9596C22.6737 40.9685 22.585 40.8787 22.585 40.3307C22.5821 37.1235 22.585 33.9194 22.585 30.7122C22.585 29.8048 22.585 28.8975 22.585 27.9901C22.5939 27.9901 22.5998 27.9901 22.6057 27.9901Z" fill="white"/>
<path d="M20.8791 26.7953C20.8791 30.2869 20.8821 33.7786 20.8761 37.2732C20.8761 37.7973 20.7786 37.8841 20.273 37.8841C19.7083 37.8841 19.1436 37.8721 18.5789 37.8841C18.2596 37.8901 18.1029 37.7554 18.1088 37.4289C18.1118 37.2942 18.1059 37.1564 18.1059 37.0217C18.1059 31.7303 18.1059 26.4389 18.1059 21.1476C18.1059 20.3001 18.1206 19.4556 18.1236 18.6082C18.1295 17.7907 17.8309 17.1828 17.0208 16.8803C16.7192 16.7665 16.4532 16.5509 16.1841 16.3593C15.8323 16.1107 15.4745 16.0538 15.0961 16.2814C14.5078 16.6378 13.9105 16.9851 13.3429 17.3684C13.2069 17.4613 13.133 17.6799 13.0827 17.8565C13.0384 18.0093 13.0709 18.1859 13.0709 18.3536C13.0709 24.6123 13.0709 30.8709 13.0709 37.1325C13.0709 37.8452 13.0384 37.8811 12.3465 37.8811C11.841 37.8841 11.3354 37.8721 10.8298 37.8871C10.4632 37.8991 10.3065 37.7314 10.3124 37.375C10.3154 37.2553 10.3095 37.1325 10.3095 37.0127C10.3095 30.224 10.3154 23.4354 10.2976 16.6467C10.2947 16.0598 10.4691 15.6645 10.9658 15.386C11.4477 15.1135 11.9178 14.8201 12.3909 14.5356C13.133 14.0864 13.8839 13.6522 14.6112 13.176C15.1848 12.7987 15.7436 12.7508 16.329 13.1072C17.5914 13.8798 18.8243 14.7063 20.1252 15.401C20.7667 15.7424 20.8821 16.1526 20.8761 16.8144C20.8436 20.1414 20.8614 23.4653 20.8614 26.7923C20.8732 26.7953 20.8761 26.7953 20.8791 26.7953Z" fill="white"/>
<path d="M16.5034 61.0979C16.5034 57.0792 16.5034 53.1085 16.5034 49.0988C19.386 49.0988 22.2539 49.0988 25.1543 49.0988C25.1631 49.2605 25.1779 49.4072 25.1779 49.5539C25.1779 53.2432 25.1749 56.9295 25.1868 60.6188C25.1868 61.0081 25.0981 61.1369 24.693 61.1339C22.112 61.1159 19.5309 61.1249 16.9499 61.1219C16.8198 61.1249 16.6897 61.1099 16.5034 61.0979ZM22.2243 52.0244C21.4083 52.0244 20.6337 52.0424 19.862 52.0184C19.4925 52.0065 19.3742 52.1233 19.3801 52.5036C19.3979 54.2404 19.389 55.9802 19.389 57.7171C19.389 57.8488 19.4067 57.9806 19.4186 58.1184C20.3706 58.1184 21.2871 58.1184 22.2243 58.1184C22.2243 56.094 22.2243 54.1027 22.2243 52.0244Z" fill="white"/>
<path d="M5.94855 61.095C5.94855 57.0912 5.94855 53.1085 5.94855 49.0958C8.81935 49.0958 11.6754 49.0958 14.5905 49.0958C14.5994 49.2485 14.6142 49.4102 14.6142 49.5689C14.6142 53.2582 14.6142 56.9445 14.6171 60.6338C14.6171 60.9362 14.6142 61.1369 14.2062 61.1339C11.566 61.1159 8.92282 61.1249 6.28264 61.1219C6.17916 61.1219 6.07864 61.1069 5.94855 61.095ZM11.6458 58.1273C11.6458 56.0851 11.6458 54.0847 11.6458 52.0244C10.8446 52.0244 10.0729 52.0394 9.30126 52.0185C8.94056 52.0095 8.80752 52.1083 8.81343 52.4976C8.83117 54.2344 8.8223 55.9743 8.8223 57.7111C8.8223 57.8429 8.84004 57.9746 8.85187 58.1273C9.78909 58.1273 10.6938 58.1273 11.6458 58.1273Z" fill="white"/>
<path d="M29.9172 28.7927C29.9172 32.6018 29.9172 36.4078 29.9172 40.2169C29.9172 40.9446 29.8552 40.9805 29.1426 40.9326C28.6696 40.9027 28.1877 40.9087 27.7146 40.9506C27.3244 40.9835 27.1765 40.8548 27.1765 40.4535C27.1854 34.3027 27.1854 28.1519 27.1884 22.001C27.1884 20.7613 27.1943 19.5215 27.1824 18.2848C27.1795 17.8775 27.1292 17.4733 27.0937 17.066C27.0701 16.8025 27.1677 16.6737 27.4426 16.6707C28.1433 16.6617 28.844 16.6198 29.5418 16.6378C29.6718 16.6408 29.8019 16.8414 29.9172 16.9672C29.9468 17.0001 29.9261 17.084 29.9261 17.1439C29.9261 21.0278 29.9261 24.9117 29.9261 28.7957C29.9232 28.7927 29.9202 28.7927 29.9172 28.7927Z" fill="white"/>
<path d="M3.97357 28.7897C3.97357 32.5838 3.97357 36.3779 3.97357 40.172C3.97357 40.9775 3.94696 40.9865 3.16643 40.9326C2.6786 40.8997 2.1819 40.9206 1.69112 40.9446C1.22694 40.9685 1.13529 40.8757 1.16781 40.4205C1.21512 39.8037 1.26242 39.1838 1.26538 38.5669C1.27129 32.0208 1.27129 25.4747 1.26538 18.9286C1.26538 18.3117 1.21216 17.6919 1.15007 17.078C1.12051 16.7695 1.24764 16.6498 1.51373 16.6438C2.19964 16.6288 2.8826 16.6228 3.56852 16.6168C3.82278 16.6138 3.96174 16.7336 3.9647 16.9971C3.96765 17.1469 3.97061 17.2996 3.97061 17.4493C3.97357 21.2314 3.97357 25.0106 3.97357 28.7897Z" fill="white"/>
<path d="M3.97653 61.0979C3.01862 61.0979 2.08435 61.0979 1.12347 61.0979C1.12347 57.0882 1.12347 53.1085 1.12347 49.0958C2.06957 49.0958 3.00088 49.0958 3.97653 49.0958C3.97653 53.0875 3.97653 57.0792 3.97653 61.0979Z" fill="white"/>
<path d="M27.0996 49.0808C28.0664 49.0808 28.9888 49.0808 29.9527 49.0808C29.9527 53.0875 29.9527 57.0822 29.9527 61.0979C28.9947 61.0979 28.0634 61.0979 27.0996 61.0979C27.0996 57.0912 27.0996 53.1085 27.0996 49.0808Z" fill="white"/>
<path d="M9.31312 45.5532C9.3279 45.4694 9.34564 45.4244 9.34269 45.3825C9.20669 43.8164 10.2415 43.3283 11.4566 43.3851C11.8291 43.4031 12.2017 43.442 12.5712 43.4301C12.9231 43.4211 13.0058 43.5798 12.9763 43.9002C12.9438 44.2745 12.9408 44.6518 12.9349 45.0292C12.929 45.3645 13.1123 45.5352 13.4316 45.5352C14.6556 45.5412 15.8796 45.5442 17.1006 45.5292C17.2307 45.5263 17.3579 45.3795 17.485 45.2987C17.3904 45.1789 17.3135 44.9723 17.2041 44.9513C16.6838 44.8555 16.7666 44.4782 16.7636 44.1188C16.7577 43.7205 17.0356 43.5768 17.3342 43.5379C17.9521 43.457 18.576 43.4211 19.1998 43.3881C19.4954 43.3732 19.4659 43.6097 19.4541 43.8074C19.4393 44.0679 19.4422 44.3434 19.0638 44.3374C18.6854 44.3314 18.304 44.3374 17.9521 44.3374C18.1413 44.7567 18.3838 45.092 18.44 45.4604C18.5375 46.1012 18.1502 46.5654 17.5146 46.5803C16.0245 46.6133 14.5314 46.6103 13.0413 46.5773C12.8344 46.5743 12.6333 46.3348 12.3938 46.1791C11.5364 46.745 10.5903 46.778 9.59104 46.206C9.54078 46.6642 9.19486 46.5953 8.87555 46.5923C8.35225 46.5893 7.8319 46.5803 7.30859 46.5953C6.9065 46.6073 6.73798 46.4156 6.73206 46.0263C6.72319 45.6341 6.72911 45.2388 6.67293 44.8525C6.61085 44.4123 6.19989 44.1907 5.80371 44.3733C5.71797 44.4123 5.64997 44.577 5.6411 44.6908C5.60562 45.1579 5.60267 45.6251 5.57901 46.0922C5.56719 46.3198 5.64997 46.5983 5.25379 46.5983C4.76892 46.5983 4.4644 46.4306 4.43779 46.0832C4.41414 45.7838 4.4437 45.4783 4.42301 45.1759C4.41118 44.9842 4.41709 44.7237 4.30475 44.6189C4.14214 44.4692 3.88196 44.3943 3.65431 44.3763C3.58335 44.3704 3.42961 44.6488 3.41778 44.8046C3.38231 45.2867 3.39118 45.7718 3.40004 46.2539C3.403 46.5085 3.30544 46.6043 3.05413 46.5983C2.57813 46.5863 2.09917 46.6073 1.62316 46.5893C1.43395 46.5803 1.12055 46.7301 1.10577 46.3528C1.09394 46.0263 1.15899 45.6999 1.51969 45.5772C2.24404 45.3346 2.24699 45.3436 2.24699 44.55C2.24699 43.3851 2.24699 43.3822 3.40004 43.3881C3.84648 43.3911 4.29588 43.3822 4.73936 43.4331C5.00545 43.463 5.26266 43.5918 5.40754 43.6367C5.76528 43.5409 6.0491 43.4061 6.33589 43.3971C7.51259 43.3702 7.86737 43.7325 7.87329 44.9124C7.8792 45.5562 7.8792 45.5562 8.52373 45.5592C8.7839 45.5532 9.03521 45.5532 9.31312 45.5532ZM11.3384 44.2506C11.3206 44.2775 11.3029 44.3075 11.2851 44.3344C11.1669 44.3404 11.0457 44.3344 10.9274 44.3524C10.5017 44.4183 10.2681 44.6728 10.3006 45.0351C10.339 45.4604 10.6583 45.5083 10.9806 45.5352C11.1107 45.5472 11.2526 45.5352 11.3797 45.5023C11.702 45.4185 11.9651 44.9723 11.841 44.592C11.7877 44.4422 11.5128 44.3614 11.3384 44.2506Z" fill="white"/>
<path d="M27.4988 43.8733C27.4988 43.0378 27.4988 42.2951 27.4988 41.5585C28.3236 41.4716 28.5661 41.6812 28.5661 42.4209C28.5661 43.2205 28.572 44.023 28.5513 44.8225C28.5365 45.4185 28.6252 45.5352 29.2254 45.5502C29.7132 45.5622 29.932 45.7598 29.9911 46.239C30.0177 46.4516 29.9793 46.5893 29.7221 46.5893C28.2911 46.5833 26.8572 46.6043 25.4262 46.5714C24.9266 46.5594 24.5629 46.239 24.418 45.7419C24.2081 45.0202 24.3471 44.3584 24.8852 43.8254C25.373 43.3402 26.2452 43.2504 26.94 43.5768C27.0967 43.6517 27.2445 43.7385 27.4988 43.8733ZM27.4662 45.5352C27.1824 44.9992 26.8986 44.6399 26.4581 44.4542C25.8904 44.2146 25.3701 44.58 25.4085 45.1969C25.4174 45.3166 25.5711 45.5173 25.6657 45.5203C26.2245 45.5502 26.7892 45.5352 27.4662 45.5352Z" fill="white"/>
<path d="M18.7681 47.5566C19.1081 47.5566 19.3772 47.5745 19.6403 47.5536C20.0956 47.5176 20.2789 47.32 20.2848 46.8588C20.2967 46.0144 20.2907 45.1699 20.2937 44.3224C20.2967 43.5379 20.4652 43.3881 21.3285 43.469C21.3285 43.8493 21.3285 44.2386 21.3285 44.6249C21.3285 45.5442 21.3344 46.4665 21.3255 47.3859C21.3167 48.1016 20.9914 48.4849 20.2937 48.5657C19.9271 48.6077 19.5487 48.5897 19.1791 48.5777C18.9189 48.5717 18.7652 48.437 18.7711 48.1495C18.774 47.9548 18.7681 47.7632 18.7681 47.5566Z" fill="white"/>
<path d="M22.446 44.9992C22.446 44.577 22.4549 44.1548 22.4431 43.7325C22.4372 43.487 22.517 43.3852 22.7742 43.3792C23.4099 43.3642 23.6405 43.5708 23.6405 44.2236C23.6434 44.8734 23.6287 45.5233 23.6464 46.1701C23.6553 46.4725 23.5754 46.6073 23.2473 46.5983C22.2953 46.5744 22.4608 46.6702 22.446 45.8167C22.4401 45.5412 22.4431 45.2687 22.446 44.9992Z" fill="white"/>
<path d="M2.78505 64.7573C2.78505 65.0537 2.79392 65.3502 2.77914 65.6467C2.77323 65.7305 2.69044 65.8114 2.64314 65.8952C2.58696 65.8084 2.48349 65.7245 2.48053 65.6347C2.46279 65.1825 2.46279 64.7273 2.48053 64.2752C2.48349 64.1793 2.56036 64.0176 2.6254 64.0057C2.71114 63.9907 2.85305 64.0625 2.91218 64.1434C3.07184 64.362 3.19601 64.6046 3.34088 64.8351C3.41479 64.9549 3.49758 65.0657 3.5774 65.1795C3.62175 65.1675 3.66906 65.1556 3.71341 65.1466C3.71341 64.8531 3.70158 64.5596 3.72227 64.2692C3.72819 64.1763 3.82575 64.0895 3.87897 63.9997C3.92923 64.0925 4.01793 64.1853 4.02089 64.2812C4.03567 64.7184 4.03567 65.1586 4.02089 65.5958C4.01793 65.6976 3.94106 65.7994 3.89967 65.9012C3.79027 65.8443 3.63949 65.8174 3.5774 65.7275C3.34975 65.3981 3.15166 65.0508 2.94175 64.7094C2.88853 64.7243 2.83531 64.7393 2.78505 64.7573Z" fill="white"/>
<path d="M16.5921 65.9431C16.2137 65.7485 15.9446 65.5029 15.6726 65.4999C15.4331 65.4969 15.1907 65.7635 14.8241 65.9851C15.0843 65.2813 15.2764 64.7004 15.513 64.1404C15.6253 63.8769 15.8323 63.9218 15.9298 64.1644C16.1545 64.7154 16.3467 65.2813 16.5921 65.9431ZM15.7731 64.5507C15.7347 64.5477 15.6992 64.5477 15.6608 64.5447C15.5928 64.7513 15.5278 64.9579 15.4509 65.2005C15.6638 65.2005 15.7998 65.2005 15.9949 65.2005C15.9062 64.9519 15.8411 64.7513 15.7731 64.5507Z" fill="white"/>
<path d="M29.4146 65.9102C29.1101 65.9102 28.8026 65.9281 28.501 65.8982C28.4153 65.8892 28.2852 65.7395 28.2793 65.6467C28.2556 65.1825 28.2586 64.7154 28.2763 64.2482C28.2793 64.1584 28.3827 63.9997 28.4478 63.9937C28.773 63.9667 29.1041 63.9817 29.4323 63.9817C29.4353 64.0386 29.4382 64.0925 29.4412 64.1494C29.2815 64.1673 29.1248 64.2003 28.9652 64.2033C28.7464 64.2093 28.5424 64.2662 28.6104 64.5267C28.64 64.6405 28.8351 64.7273 28.9711 64.7842C29.0805 64.8321 29.2135 64.8172 29.3466 64.922C29.2786 64.9549 29.2135 65.0028 29.1426 65.0148C28.9149 65.0567 28.5927 64.928 28.5927 65.3472C28.5927 65.7994 28.9415 65.6437 29.1781 65.6856C29.2697 65.7006 29.3554 65.7365 29.4471 65.7634C29.4323 65.8144 29.4234 65.8623 29.4146 65.9102Z" fill="white"/>
<path d="M26.1506 64.0506C25.9554 64.6166 25.778 65.1885 25.5592 65.7425C25.4676 65.9791 25.2311 66.015 25.1305 65.7695C24.897 65.2065 24.7196 64.6195 24.5865 64.0087C25.1779 64.2542 24.9679 64.9669 25.3316 65.3472C25.7071 64.9669 25.4794 64.2512 26.0027 63.9667C26.053 63.9937 26.1003 64.0236 26.1506 64.0506Z" fill="white"/>
<path d="M14.8655 47.0685C15.3267 47.1194 15.5011 47.2841 15.4982 47.6135C15.4952 47.9459 15.3001 48.1165 14.9985 48.1225C14.6585 48.1285 14.4427 47.895 14.4989 47.5805C14.5343 47.3709 14.7679 47.1972 14.8655 47.0685Z" fill="white"/>
<path d="M16.2905 47.0714C16.7547 47.1164 16.9321 47.2841 16.9291 47.6075C16.9262 47.9309 16.734 48.1016 16.4295 48.1225C16.1427 48.1435 15.8441 47.853 15.9239 47.5805C15.9919 47.3679 16.1959 47.2002 16.2905 47.0714Z" fill="white"/>
<path d="M8.77798 64.0266C9.24216 64.0266 9.70634 64.0266 10.1705 64.0266C9.41955 64.1644 9.63538 64.7393 9.61468 65.1975C9.60581 65.4191 9.59399 65.6377 9.48164 65.8952C9.43433 65.8263 9.35155 65.7635 9.34564 65.6916C9.32494 65.467 9.33677 65.2394 9.3279 65.0118C9.31312 64.6076 9.4846 64.0865 8.65381 64.1943C8.6952 64.1404 8.73659 64.0835 8.77798 64.0266Z" fill="white"/>
<path d="M18.4576 64.0326C18.9218 64.0326 19.383 64.0326 19.8472 64.0326C19.111 64.1554 19.3062 64.7154 19.2914 65.1645C19.2825 65.4041 19.2677 65.6437 19.2559 65.8832C19.1997 65.8862 19.1436 65.8892 19.0903 65.8922C19.0637 65.7754 19.0223 65.6616 19.0135 65.5448C18.9987 65.3801 19.0076 65.2124 19.0076 65.0477C19.0016 64.344 19.0016 64.344 18.4576 64.0326Z" fill="white"/>
<path d="M27.4071 47.4488C27.3982 47.7901 27.2356 47.9698 26.9134 47.9758C26.6 47.9818 26.396 47.8291 26.3871 47.5027C26.3782 47.1822 26.5556 46.9966 26.8749 46.9876C27.1913 46.9786 27.3716 47.1433 27.4071 47.4488Z" fill="white"/>
<path d="M6.61968 64.9579C6.61968 65.1975 6.63151 65.44 6.61081 65.6766C6.6049 65.7515 6.50733 65.8204 6.45411 65.8922C6.40681 65.8263 6.31811 65.7635 6.31811 65.6976C6.30629 65.2035 6.30333 64.7064 6.31811 64.2123C6.32107 64.1374 6.42159 64.0685 6.48072 63.9967C6.52803 64.0775 6.60785 64.1554 6.61672 64.2392C6.63151 64.4788 6.61968 64.7184 6.61968 64.9579Z" fill="white"/>
<path d="M12.7102 64.9459C12.7102 65.2005 12.7191 65.455 12.7043 65.7096C12.7013 65.7724 12.6097 65.8323 12.5594 65.8922C12.5091 65.8323 12.4145 65.7724 12.4116 65.7096C12.3998 65.2005 12.3998 64.6914 12.4116 64.1793C12.4116 64.1165 12.5062 64.0566 12.5594 63.9967C12.6097 64.0566 12.6984 64.1165 12.7043 64.1793C12.7191 64.4369 12.7102 64.6914 12.7102 64.9459Z" fill="white"/>
<path d="M22.384 64.9579C22.384 65.1975 22.3988 65.44 22.3781 65.6766C22.3722 65.7545 22.2776 65.8234 22.2214 65.8952C22.1741 65.8293 22.0854 65.7665 22.0854 65.7006C22.0735 65.1915 22.0735 64.6794 22.0883 64.1704C22.0913 64.1105 22.1918 64.0566 22.245 63.9967C22.2923 64.0626 22.3751 64.1224 22.3781 64.1913C22.3929 64.4459 22.384 64.7034 22.384 64.9579Z" fill="white"/>
<path d="M0 66C0 65.2604 0 64.6405 0 63.9817C0.266088 64.2632 0.289741 65.5149 0 66Z" fill="white"/>
<path d="M18.1857 4.49782C17.6062 5.59083 15.989 6.14183 14.7945 5.69265C13.2512 5.11171 12.5535 3.64138 12.9792 1.86261C13.2749 0.625861 14.493 -0.140745 16.0452 0.0179668C15.2912 0.344373 14.7058 0.742649 14.3333 1.39247C13.9342 2.0872 13.9785 2.78494 14.3185 3.48566C14.6704 4.21633 15.1582 4.76733 15.9949 4.92904C16.7725 5.08176 17.4554 4.76134 18.1857 4.49782Z" fill="white"/>
<path d="M16.3645 1.07507L16.805 1.97643L17.7836 2.12017L17.074 2.8209L17.2425 3.8121L16.3645 3.34495L15.4864 3.8121L15.6549 2.8209L14.9453 2.12017L15.9269 1.97643L16.3645 1.07507Z" fill="white"/>
</g>
<defs>
<clipPath id="clip0_1_4">
<rect width="30" height="66" fill="white"/>
</clipPath>
</defs>
</svg>
