<svg width="65" height="79" viewBox="0 0 65 79" fill="none" xmlns="http://www.w3.org/2000/svg">
<g clip-path="url(#clip0_7_936)">
<path d="M40.7091 0C45.6106 2.10819 50.5105 4.21638 55.412 6.32303C58.1698 7.5085 60.9229 8.70479 63.6915 9.86553C64.5855 10.2411 65.0093 10.8331 64.9984 11.813C64.9737 14.2798 65.0139 16.7465 64.9845 19.2133C64.9381 23.1376 61.2415 25.4482 57.7321 23.7079C49.5469 19.6492 41.3819 15.5487 33.2138 11.456C31.93 10.813 31.7119 9.75734 32.6152 8.62442C34.6646 6.05255 36.7171 3.48377 38.785 0.927357C39.068 0.578053 39.447 0.309119 39.7826 0.00309119C40.092 0 40.4013 0 40.7091 0Z" fill="#FFB701"/>
<path d="M56.4622 26.8068C55.0099 29.6847 53.6488 32.5348 52.15 35.3091C50.0991 39.1067 48.0389 42.9088 45.244 46.238C41.4948 50.7048 36.9877 54.0773 31.3407 55.7945C31.0036 55.8965 30.6849 56.0835 30.3802 56.2659C26.8739 58.3617 23.3861 60.4915 19.8627 62.5595C15.0787 65.3679 9.16572 62.6399 8.21295 57.2164C7.68862 54.2303 9.08993 51.1314 11.7069 49.5595C15.1855 47.4699 18.6748 45.4003 22.1549 43.3138C22.3204 43.2149 22.4952 43.0634 22.5694 42.8934C23.6196 40.4637 25.1524 38.3431 26.7532 36.2612C26.8275 36.1639 26.8862 36.0557 26.9141 36.0108C24.9668 35.2674 23.0412 34.5317 20.9933 33.7481C18.9857 35.8331 16.3563 37.3169 13.6821 38.5611C14.3657 40.1391 15.0401 41.6955 15.7392 43.3122C14.4461 44.0959 13.2892 44.7991 12.1292 45.4962C11.161 46.0788 10.1618 46.6152 9.22449 47.2442C7.69636 48.269 6.62759 49.7033 5.83722 51.3524C5.75061 51.3076 5.69493 51.2983 5.67946 51.2674C4.03377 47.9846 2.32467 44.7326 0.770241 41.4081C-0.365036 38.9799 -0.23666 36.4699 1.11206 34.1484C3.41045 30.1948 5.79082 26.2891 8.16346 22.3802C9.15799 20.7404 10.6212 19.643 12.4138 18.9722C17.6091 17.0278 22.7999 15.0696 28.003 13.1469C28.3633 13.0139 28.8892 12.9938 29.2202 13.1577C38.1029 17.5657 46.9717 22.0047 55.8404 26.4405C55.9982 26.5271 56.1467 26.6244 56.4622 26.8068Z" fill="#FFB701"/>
<path d="M5.3794 59.8795C5.94704 60.8285 6.44972 61.8439 7.1117 62.7419C10.2871 67.0448 16.6456 68.2396 21.1573 65.6074C22.308 64.9351 23.451 64.2489 24.5971 63.5688C26.2954 66.728 25.8159 73.1608 20.6345 76.8532C15.6139 80.4312 8.7311 79.4467 4.89374 74.5734C0.92027 69.5271 2.21795 62.9876 5.3794 59.8795Z" fill="#FFB701"/>
</g>
<defs>
<clipPath id="clip0_7_936">
<rect width="65" height="79" fill="white"/>
</clipPath>
</defs>
</svg>
